# Blender 4.0.1
# www.blender.org
mtllib LV1_KidneyBeen.mtl
o Level1
v -0.751053 -0.320569 0.464857
v -0.751053 0.320569 0.464857
v -0.751053 -0.320569 -0.424082
v -0.751053 0.320569 -0.424082
v 0.751053 -0.320569 0.464857
v 0.751053 0.320569 0.464857
v 0.751053 -0.320569 -0.424082
v 0.751053 0.320569 -0.424082
v -0.898390 -0.383456 0.020245
v -0.898390 0.000000 0.552185
v -0.898390 0.383456 0.020245
v -0.898390 0.000000 -0.509174
v 0.000000 -0.383456 -0.509174
v 0.000000 0.383456 -0.509174
v 0.898390 -0.000000 -0.509174
v 0.898390 -0.383456 0.020245
v 0.898390 0.383456 0.020245
v 0.898390 -0.000000 0.552185
v 0.000000 -0.383456 0.335765
v -0.000000 0.383456 0.335765
v -1.234359 0.000000 0.000163
v -0.000000 -0.000000 -0.699588
v 1.234359 -0.000000 0.000163
v 0.000000 0.000000 0.464562
v 0.000000 -0.526857 -0.031408
v -0.000000 0.526857 -0.031408
v -0.852559 -0.363895 -0.248855
v -0.852559 -0.363895 0.295069
v -0.852559 -0.192269 0.526413
v -0.852559 0.192269 0.526413
v -0.852559 0.363895 0.295069
v -0.852559 0.363895 -0.248855
v -0.852559 0.192269 -0.483198
v -0.852559 -0.192269 -0.483198
v 0.450461 -0.363895 -0.481503
v -0.450461 -0.363895 -0.481503
v -0.450461 0.363895 -0.481503
v 0.450461 0.363895 -0.481503
v 0.852559 0.192269 -0.483198
v 0.852559 -0.192269 -0.483198
v 0.852559 -0.363895 0.295069
v 0.852559 -0.363895 -0.248855
v 0.852559 0.363895 -0.248855
v 0.852559 0.363895 0.295069
v 0.852559 0.192269 0.526413
v 0.852559 -0.192269 0.526413
v -0.450461 -0.363895 0.445316
v 0.450461 -0.363895 0.445316
v 0.450461 0.363895 0.445316
v -0.450461 0.363895 0.445316
v -1.150499 0.000000 0.289318
v -1.150499 0.209766 0.003255
v -1.150499 0.000000 -0.278539
v -1.150499 -0.209766 0.003255
v -0.491456 -0.000000 -0.652060
v -0.000000 0.209766 -0.652060
v 0.491456 -0.000000 -0.652060
v -0.000000 -0.209766 -0.652060
v 1.150499 -0.000000 -0.278539
v 1.150499 0.209766 0.003255
v 1.150499 -0.000000 0.289318
v 1.150499 -0.209766 0.003255
v 0.491456 0.000000 0.603442
v 0.000000 0.209766 0.432173
v -0.491456 0.000000 0.603442
v 0.000000 -0.209766 0.432173
v 0.000000 -0.491063 -0.277086
v 0.491456 -0.491063 0.028188
v -0.000000 -0.491064 0.176928
v -0.491456 -0.491063 0.028188
v 0.000000 0.491063 -0.277086
v -0.491456 0.491064 0.028188
v -0.000000 0.491064 0.176928
v 0.491456 0.491063 0.028188
v -1.077282 -0.201940 0.284870
v -1.077282 0.201940 0.284870
v -1.077282 0.201940 -0.267947
v -1.077282 -0.201940 -0.267947
v -0.473119 -0.201940 -0.610563
v -0.473119 0.201940 -0.610563
v 0.473119 0.201940 -0.610563
v 0.473119 -0.201940 -0.610563
v 1.077282 -0.201940 -0.267947
v 1.077282 0.201940 -0.267947
v 1.077282 0.201940 0.284870
v 1.077282 -0.201940 0.284870
v 0.473119 -0.201940 0.559361
v 0.473119 0.201940 0.559361
v -0.473119 0.201940 0.559361
v -0.473119 -0.201940 0.559361
v -0.473119 -0.459812 -0.254539
v 0.473119 -0.459812 -0.254539
v 0.473119 -0.459813 0.271169
v -0.473119 -0.459813 0.271169
v 0.473119 0.459812 -0.254539
v -0.473119 0.459812 -0.254539
v -0.473119 0.459813 0.271169
v 0.473119 0.459812 0.271169
vn -0.2361 -0.7316 0.6395
vn -0.3997 -0.4364 0.8061
vn -0.7308 -0.5442 0.4121
vn -0.4065 -0.8565 0.3181
vn -0.4710 -0.0000 0.8822
vn -0.8795 -0.0000 0.4759
vn -1.0000 -0.0000 -0.0069
vn -0.8019 -0.5975 -0.0048
vn -0.4310 -0.9023 0.0034
vn -0.3997 0.4364 0.8061
vn -0.7308 0.5442 0.4121
vn -0.2361 0.7316 0.6395
vn -0.4065 0.8565 0.3181
vn -0.4310 0.9023 0.0034
vn -0.8019 0.5975 -0.0048
vn -0.7118 0.5513 -0.4351
vn -0.8617 -0.0000 -0.5074
vn -0.4058 0.8634 -0.2998
vn -0.3191 0.7574 -0.5697
vn -0.4650 0.4534 -0.7604
vn -0.5286 -0.0000 -0.8489
vn -0.7118 -0.5513 -0.4351
vn -0.4058 -0.8634 -0.2998
vn -0.4650 -0.4534 -0.7604
vn -0.3191 -0.7574 -0.5697
vn -0.1891 -0.4208 -0.8872
vn -0.1533 -0.7839 -0.6017
vn -0.2154 -0.0000 -0.9765
vn -0.0000 -0.0000 -1.0000
vn -0.0000 -0.4328 -0.9015
vn -0.0000 -0.7922 -0.6103
vn -0.1891 0.4208 -0.8872
vn -0.1533 0.7839 -0.6017
vn -0.0000 0.7922 -0.6103
vn -0.0000 0.4328 -0.9015
vn 0.1891 0.4208 -0.8872
vn 0.2154 -0.0000 -0.9765
vn 0.1533 0.7839 -0.6017
vn 0.3191 0.7574 -0.5697
vn 0.4650 0.4534 -0.7604
vn 0.5286 -0.0000 -0.8489
vn 0.1891 -0.4208 -0.8872
vn 0.1533 -0.7839 -0.6017
vn 0.4650 -0.4534 -0.7604
vn 0.3191 -0.7574 -0.5697
vn 0.7118 -0.5513 -0.4351
vn 0.4058 -0.8634 -0.2998
vn 0.8617 -0.0000 -0.5074
vn 1.0000 -0.0000 -0.0069
vn 0.8019 -0.5975 -0.0048
vn 0.4310 -0.9023 0.0034
vn 0.7118 0.5513 -0.4351
vn 0.4058 0.8634 -0.2998
vn 0.4310 0.9023 0.0034
vn 0.8019 0.5975 -0.0048
vn 0.7308 0.5442 0.4121
vn 0.8795 -0.0000 0.4759
vn 0.4065 0.8565 0.3181
vn 0.2361 0.7316 0.6395
vn 0.3997 0.4364 0.8061
vn 0.4710 -0.0000 0.8822
vn 0.7308 -0.5442 0.4121
vn 0.4065 -0.8565 0.3181
vn 0.3997 -0.4364 0.8061
vn 0.2361 -0.7316 0.6395
vn -0.0762 -0.3541 0.9321
vn -0.0242 -0.7267 0.6865
vn -0.0670 -0.0000 0.9978
vn -0.0000 -0.0000 1.0000
vn -0.0000 -0.3645 0.9312
vn -0.0000 -0.7296 0.6839
vn -0.0762 0.3541 0.9321
vn -0.0242 0.7267 0.6865
vn -0.0000 0.7296 0.6839
vn -0.0000 0.3645 0.9312
vn 0.0762 0.3541 0.9321
vn 0.0670 -0.0000 0.9978
vn 0.0242 0.7267 0.6865
vn 0.0762 -0.3541 0.9321
vn 0.0242 -0.7267 0.6865
vn -0.1565 -0.9534 -0.2578
vn -0.0000 -0.9618 -0.2738
vn -0.0000 -1.0000 -0.0004
vn -0.1592 -0.9872 0.0129
vn 0.1565 -0.9534 -0.2578
vn 0.1592 -0.9872 0.0129
vn 0.0959 -0.9445 0.3143
vn -0.0000 -0.9489 0.3157
vn -0.0959 -0.9445 0.3143
vn 0.1565 0.9534 -0.2578
vn -0.0000 0.9618 -0.2738
vn -0.0000 1.0000 -0.0004
vn 0.1592 0.9872 0.0129
vn -0.1565 0.9534 -0.2578
vn -0.1592 0.9872 0.0129
vn -0.0959 0.9445 0.3143
vn -0.0000 0.9489 0.3157
vn 0.0959 0.9445 0.3143
vt 0.375000 0.000000
vt 0.437500 0.000000
vt 0.437500 0.062500
vt 0.375000 0.062500
vt 0.500000 0.000000
vt 0.500000 0.062500
vt 0.500000 0.125000
vt 0.437500 0.125000
vt 0.375000 0.125000
vt 0.562500 0.000000
vt 0.562500 0.062500
vt 0.625000 0.000000
vt 0.625000 0.062500
vt 0.625000 0.125000
vt 0.562500 0.125000
vt 0.562500 0.187500
vt 0.500000 0.187500
vt 0.625000 0.187500
vt 0.625000 0.250000
vt 0.562500 0.250000
vt 0.500000 0.250000
vt 0.437500 0.187500
vt 0.375000 0.187500
vt 0.437500 0.250000
vt 0.375000 0.250000
vt 0.437500 0.312500
vt 0.375000 0.312500
vt 0.500000 0.312500
vt 0.500000 0.375000
vt 0.437500 0.375000
vt 0.375000 0.375000
vt 0.562500 0.312500
vt 0.625000 0.312500
vt 0.625000 0.375000
vt 0.562500 0.375000
vt 0.562500 0.437500
vt 0.500000 0.437500
vt 0.625000 0.437500
vt 0.625000 0.500000
vt 0.562500 0.500000
vt 0.500000 0.500000
vt 0.437500 0.437500
vt 0.375000 0.437500
vt 0.437500 0.500000
vt 0.375000 0.500000
vt 0.437500 0.562500
vt 0.375000 0.562500
vt 0.500000 0.562500
vt 0.500000 0.625000
vt 0.437500 0.625000
vt 0.375000 0.625000
vt 0.562500 0.562500
vt 0.625000 0.562500
vt 0.625000 0.625000
vt 0.562500 0.625000
vt 0.562500 0.687500
vt 0.500000 0.687500
vt 0.625000 0.687500
vt 0.625000 0.750000
vt 0.562500 0.750000
vt 0.500000 0.750000
vt 0.437500 0.687500
vt 0.375000 0.687500
vt 0.437500 0.750000
vt 0.375000 0.750000
vt 0.437500 0.812500
vt 0.375000 0.812500
vt 0.500000 0.812500
vt 0.500000 0.875000
vt 0.437500 0.875000
vt 0.375000 0.875000
vt 0.562500 0.812500
vt 0.625000 0.812500
vt 0.625000 0.875000
vt 0.562500 0.875000
vt 0.562500 0.937500
vt 0.500000 0.937500
vt 0.625000 0.937500
vt 0.625000 1.000000
vt 0.562500 1.000000
vt 0.500000 1.000000
vt 0.437500 0.937500
vt 0.375000 0.937500
vt 0.437500 1.000000
vt 0.375000 1.000000
vt 0.125000 0.500000
vt 0.187500 0.500000
vt 0.187500 0.562500
vt 0.125000 0.562500
vt 0.250000 0.500000
vt 0.250000 0.562500
vt 0.250000 0.625000
vt 0.187500 0.625000
vt 0.125000 0.625000
vt 0.312500 0.500000
vt 0.312500 0.562500
vt 0.312500 0.625000
vt 0.312500 0.687500
vt 0.250000 0.687500
vt 0.312500 0.750000
vt 0.250000 0.750000
vt 0.187500 0.687500
vt 0.125000 0.687500
vt 0.187500 0.750000
vt 0.125000 0.750000
vt 0.687500 0.500000
vt 0.687500 0.562500
vt 0.750000 0.500000
vt 0.750000 0.562500
vt 0.750000 0.625000
vt 0.687500 0.625000
vt 0.812500 0.500000
vt 0.812500 0.562500
vt 0.875000 0.500000
vt 0.875000 0.562500
vt 0.875000 0.625000
vt 0.812500 0.625000
vt 0.812500 0.687500
vt 0.750000 0.687500
vt 0.875000 0.687500
vt 0.875000 0.750000
vt 0.812500 0.750000
vt 0.750000 0.750000
vt 0.687500 0.687500
vt 0.687500 0.750000
s 1
usemtl M_Level1
f 1/1/1 29/2/2 75/3/3 28/4/4
f 29/2/2 10/5/5 51/6/6 75/3/3
f 75/3/3 51/6/6 21/7/7 54/8/8
f 28/4/4 75/3/3 54/8/8 9/9/9
f 10/5/5 30/10/10 76/11/11 51/6/6
f 30/10/10 2/12/12 31/13/13 76/11/11
f 76/11/11 31/13/13 11/14/14 52/15/15
f 51/6/6 76/11/11 52/15/15 21/7/7
f 21/7/7 52/15/15 77/16/16 53/17/17
f 52/15/15 11/14/14 32/18/18 77/16/16
f 77/16/16 32/18/18 4/19/19 33/20/20
f 53/17/17 77/16/16 33/20/20 12/21/21
f 9/9/9 54/8/8 78/22/22 27/23/23
f 54/8/8 21/7/7 53/17/17 78/22/22
f 78/22/22 53/17/17 12/21/21 34/24/24
f 27/23/23 78/22/22 34/24/24 3/25/25
f 3/25/25 34/24/24 79/26/26 36/27/27
f 34/24/24 12/21/21 55/28/28 79/26/26
f 79/26/26 55/28/28 22/29/29 58/30/30
f 36/27/27 79/26/26 58/30/30 13/31/31
f 12/21/21 33/20/20 80/32/32 55/28/28
f 33/20/20 4/19/19 37/33/33 80/32/32
f 80/32/32 37/33/33 14/34/34 56/35/35
f 55/28/28 80/32/32 56/35/35 22/29/29
f 22/29/29 56/35/35 81/36/36 57/37/37
f 56/35/35 14/34/34 38/38/38 81/36/36
f 81/36/36 38/38/38 8/39/39 39/40/40
f 57/37/37 81/36/36 39/40/40 15/41/41
f 13/31/31 58/30/30 82/42/42 35/43/43
f 58/30/30 22/29/29 57/37/37 82/42/42
f 82/42/42 57/37/37 15/41/41 40/44/44
f 35/43/43 82/42/42 40/44/44 7/45/45
f 7/45/45 40/44/44 83/46/46 42/47/47
f 40/44/44 15/41/41 59/48/48 83/46/46
f 83/46/46 59/48/48 23/49/49 62/50/50
f 42/47/47 83/46/46 62/50/50 16/51/51
f 15/41/41 39/40/40 84/52/52 59/48/48
f 39/40/40 8/39/39 43/53/53 84/52/52
f 84/52/52 43/53/53 17/54/54 60/55/55
f 59/48/48 84/52/52 60/55/55 23/49/49
f 23/49/49 60/55/55 85/56/56 61/57/57
f 60/55/55 17/54/54 44/58/58 85/56/56
f 85/56/56 44/58/58 6/59/59 45/60/60
f 61/57/57 85/56/56 45/60/60 18/61/61
f 16/51/51 62/50/50 86/62/62 41/63/63
f 62/50/50 23/49/49 61/57/57 86/62/62
f 86/62/62 61/57/57 18/61/61 46/64/64
f 41/63/63 86/62/62 46/64/64 5/65/65
f 5/65/65 46/64/64 87/66/66 48/67/67
f 46/64/64 18/61/61 63/68/68 87/66/66
f 87/66/66 63/68/68 24/69/69 66/70/70
f 48/67/67 87/66/66 66/70/70 19/71/71
f 18/61/61 45/60/60 88/72/72 63/68/68
f 45/60/60 6/59/59 49/73/73 88/72/72
f 88/72/72 49/73/73 20/74/74 64/75/75
f 63/68/68 88/72/72 64/75/75 24/69/69
f 24/69/69 64/75/75 89/76/76 65/77/77
f 64/75/75 20/74/74 50/78/78 89/76/76
f 89/76/76 50/78/78 2/79/12 30/80/10
f 65/77/77 89/76/76 30/80/10 10/81/5
f 19/71/71 66/70/70 90/82/79 47/83/80
f 66/70/70 24/69/69 65/77/77 90/82/79
f 90/82/79 65/77/77 10/81/5 29/84/2
f 47/83/80 90/82/79 29/84/2 1/85/1
f 3/86/25 36/87/27 91/88/81 27/89/23
f 36/87/27 13/90/31 67/91/82 91/88/81
f 91/88/81 67/91/82 25/92/83 70/93/84
f 27/89/23 91/88/81 70/93/84 9/94/9
f 13/90/31 35/95/43 92/96/85 67/91/82
f 35/95/43 7/45/45 42/47/47 92/96/85
f 92/96/85 42/47/47 16/51/51 68/97/86
f 67/91/82 92/96/85 68/97/86 25/92/83
f 25/92/83 68/97/86 93/98/87 69/99/88
f 68/97/86 16/51/51 41/63/63 93/98/87
f 93/98/87 41/63/63 5/65/65 48/100/67
f 69/99/88 93/98/87 48/100/67 19/101/71
f 9/94/9 70/93/84 94/102/89 28/103/4
f 70/93/84 25/92/83 69/99/88 94/102/89
f 94/102/89 69/99/88 19/101/71 47/104/80
f 28/103/4 94/102/89 47/104/80 1/105/1
f 8/39/39 38/106/38 95/107/90 43/53/53
f 38/106/38 14/108/34 71/109/91 95/107/90
f 95/107/90 71/109/91 26/110/92 74/111/93
f 43/53/53 95/107/90 74/111/93 17/54/54
f 14/108/34 37/112/33 96/113/94 71/109/91
f 37/112/33 4/114/19 32/115/18 96/113/94
f 96/113/94 32/115/18 11/116/14 72/117/95
f 71/109/91 96/113/94 72/117/95 26/110/92
f 26/110/92 72/117/95 97/118/96 73/119/97
f 72/117/95 11/116/14 31/120/13 97/118/96
f 97/118/96 31/120/13 2/121/12 50/122/78
f 73/119/97 97/118/96 50/122/78 20/123/74
f 17/54/54 74/111/93 98/124/98 44/58/58
f 74/111/93 26/110/92 73/119/97 98/124/98
f 98/124/98 73/119/97 20/123/74 49/125/73
f 44/58/58 98/124/98 49/125/73 6/59/59
